<?xml version="1.0" encoding="utf-8"?>
<!-- Generator: Adobe Illustrator 21.1.0, SVG Export Plug-In . SVG Version: 6.00 Build 0)  -->
<!DOCTYPE svg PUBLIC "-//W3C//DTD SVG 1.1//EN" "http://www.w3.org/Graphics/SVG/1.1/DTD/svg11.dtd">
<svg version="1.1" id="Layer_1" xmlns="http://www.w3.org/2000/svg" xmlns:xlink="http://www.w3.org/1999/xlink" x="0px" y="0px"
	 viewBox="0 0 196.6 64" style="enable-background:new 0 0 196.6 64;" xml:space="preserve">
<style type="text/css">
	.st0{fill:#F26722;}
	.st1{fill:#1ED699;}
	.st2{fill:#6D41D8;}
</style>
<g>
	<g>
		<path d="M46.7,20.6c-6.3,0-11.4,5.1-11.4,11.4c0,6.3,5.1,11.5,11.4,11.5c6.3,0,11.5-5.1,11.5-11.5C58.1,25.7,53,20.6,46.7,20.6
			 M46.7,47c-8.3,0-15-6.7-15-15c0-8.3,6.7-15,15-15c8.3,0,15,6.7,15,15C61.6,40.3,54.9,47,46.7,47"/>
		<path d="M15,43.5C8.7,43.5,3.5,38.3,3.5,32c0-6.3,5.1-11.5,11.4-11.5c6.3,0,11.4,5.1,11.4,11.5C26.4,38.3,21.3,43.5,15,43.5
			 M15,17c-4.6,0-8.7,2.1-11.4,5.3v-3.6H0V64h3.5V41.6C6.3,44.9,10.4,47,15,47c8.3,0,15-6.7,15-15S23.2,17,15,17"/>
	</g>
	<rect x="64.3" width="3.5" height="47"/>
	<polygon points="95.4,17 74,38.5 74,17 70.5,17 70.5,47 100.4,17 	"/>
	<g>
		<path d="M185,25.4L185,25.4c1.3,1.9,2.1,4.1,2.1,6.6c0,6.3-5.1,11.5-11.5,11.5c-6.3,0-11.5-5.1-11.5-11.5
			c0-6.3,5.1-11.5,11.5-11.5c2.4,0,4.7,0.8,6.6,2.1c0,0,0,0,0,0c0.7-0.7,1.6-1.6,2.5-2.5c0.6-0.6,1.6-1.6,2.3-2.3l2.8,2.8L185,25.4z
			 M196.6,22.3L185.3,11l-0.7,4.3l-3,3c-1.8-0.8-3.8-1.2-5.9-1.2c-8.3,0-15,6.7-15,15c0,8.3,6.7,15,15,15c8.3,0,15-6.7,15-15
			c0-2.1-0.4-4.1-1.2-5.9c1-1,2-2,3-3l0,0l0,0L196.6,22.3z"/>
		<path class="st0" d="M167.1,32c0,4.7,3.8,8.5,8.5,8.5c4.7,0,8.5-3.8,8.5-8.5C176.8,36.9,175.2,28,167.1,32"/>
		<path class="st0" d="M182.3,29c0-1.4-1.1-2.5-2.5-2.5c-1.4,0-2.5,1.1-2.5,2.5c0,1.4,1.1,2.5,2.5,2.5
			C181.2,31.5,182.3,30.4,182.3,29"/>
		<path class="st0" d="M191.5,14.3c0,1.3,1,2.3,2.3,2.3c1.3,0,2.3-1,2.3-2.3c0-1.3-1-2.3-2.3-2.3C192.6,12,191.5,13,191.5,14.3"/>
		<path class="st0" d="M192.5,9.7c0,0.8,0.6,1.4,1.4,1.4c0.8,0,1.4-0.6,1.4-1.4c0-0.7-0.6-1.4-1.4-1.4
			C193.1,8.3,192.5,8.9,192.5,9.7"/>
		<path class="st1" d="M110.3,36.7c-2.6,0-4.7-2.1-4.7-4.7c0-2.6,2.1-4.7,4.7-4.7c2.6,0,4.7,2.1,4.7,4.7
			C115,34.6,112.9,36.7,110.3,36.7 M110.3,23.5c-4.7,0-8.5,3.8-8.5,8.5s3.8,8.5,8.5,8.5c4.7,0,8.5-3.8,8.5-8.5S115,23.5,110.3,23.5"
			/>
		<path d="M110.3,43.4c-6.3,0-11.5-5.1-11.5-11.5c0-6.3,5.1-11.5,11.5-11.5c6.3,0,11.5,5.1,11.5,11.5
			C121.8,38.3,116.6,43.4,110.3,43.4 M110.3,17c-8.3,0-15,6.7-15,15c0,3.4,1.2,6.6,3.1,9.1l-7.3,7.3l2.8,2.8l7.3-7.3
			c2.5,1.9,5.7,3.1,9.1,3.1c8.3,0,15-6.7,15-15C125.3,23.7,118.6,17,110.3,17"/>
		<path d="M143,43.4c-6.3,0-11.5-5.2-11.5-11.5c0-6.3,5.2-11.5,11.5-11.5c6.3,0,11.5,5.2,11.5,11.5C154.5,38.3,149.3,43.4,143,43.4
			 M143,16.9c-8.3,0-15,6.7-15,15c0,8.3,6.7,15,15,15s15-6.7,15-15C158,23.7,151.3,16.9,143,16.9"/>
	</g>
	<rect x="139.8" y="11.8" width="6.5" height="3.5"/>
	<rect x="154.3" y="15.6" transform="matrix(0.707 -0.7072 0.7072 0.707 32.3512 115.8925)" width="3.5" height="6.5"/>
	<g>
		<path class="st2" d="M144.1,33.1c-0.6,0.6-1.6,0.6-2.2,0c-0.6-0.6-0.6-1.6,0-2.2c0.6-0.6,5.5-3.3,5.5-3.3S144.7,32.4,144.1,33.1
			 M143,23.4c-4.7,0-8.5,3.8-8.5,8.5c0,4.7,3.8,8.5,8.5,8.5c4.7,0,8.5-3.8,8.5-8.5C151.6,27.2,147.7,23.4,143,23.4"/>
	</g>
</g>
</svg>
